<!-- Exported by Character Map UWP -->
<svg height="100%" viewBox="0 0 992 896" width="100%" xmlns="http://www.w3.org/2000/svg" xmlns:xlink="http://www.w3.org/1999/xlink">
  <path d="M704,768L768,704L768,896L0,896L0,256L64,256L64,832L704,832ZM640,512C597.333,512 555.583,516.25 514.75,524.75C473.917,533.25 434.5,545.75 396.5,562.25C358.5,578.75 322.25,598.917 287.75,622.75C253.25,646.583 221.333,673.667 192,704L192,640C192,598.667 197.333,558.917 208,520.75C218.667,482.583 233.75,446.917 253.25,413.75C272.75,380.583 296.083,350.417 323.25,323.25C350.417,296.083 380.583,272.75 413.75,253.25C446.917,233.75 482.583,218.667 520.75,208C558.917,197.333 598.667,192 640,192L640,0L992,352L640,704ZM690.5,256C671.833,256 654.333,256.167 638,256.5C621.667,256.833 605.5,257.917 589.5,259.75C573.5,261.583 557.5,264.583 541.5,268.75C525.5,272.917 508.5,278.667 490.5,286C461.5,298 434.583,313.333 409.75,332C384.917,350.667 362.75,371.917 343.25,395.75C323.75,419.583 307.25,445.417 293.75,473.25C280.25,501.083 270.333,530.333 264,561C320,523.667 379.833,495.5 443.5,476.5C507.167,457.5 572.667,448 640,448L704,448L704,549.5L901.5,352L704,154.5L704,256Z" fill="#000000">
  </path>
</svg>